<?xml version="1.0" encoding="UTF-8"?><svg xmlns="http://www.w3.org/2000/svg" id="dark" viewBox="0 0 667.66 119.15"><defs><style>.f{fill:#f47a20;}</style></defs><g id="a"/><g id="b"/><g id="c"/><g id="d"><path d="M48.41,32.55v18.64c-1.72-.31-3.13-.47-4.54-.47-14.88,0-24.28,8.77-24.28,25.85v40.58H0V33.49H18.64v12.22c5.64-8.77,15.82-13.16,29.77-13.16Z"/><path d="M57.35,75.32c0-25.07,18.8-42.77,44.49-42.77s44.65,17.7,44.65,42.77-18.64,42.93-44.65,42.93-44.49-17.86-44.49-42.93Zm69.41,0c0-15.98-10.65-26.16-24.91-26.16s-24.75,10.18-24.75,26.16,10.65,26.16,24.75,26.16,24.91-10.18,24.91-26.16Z"/><path d="M234.25,68.11v49.04h-18.49v-10.18c-4.7,7.21-13.79,11.28-26.32,11.28-19.11,0-31.18-10.5-31.18-25.07s9.4-24.91,34.78-24.91h21.62v-1.25c0-11.44-6.89-18.17-20.84-18.17-9.4,0-19.11,3.13-25.38,8.3l-7.68-14.26c8.93-6.89,21.93-10.34,35.41-10.34,24.13,0,38.07,11.44,38.07,35.56Zm-19.58,22.88v-9.71h-20.21c-13.32,0-16.92,5.01-16.92,11.12,0,7.05,5.95,11.59,15.98,11.59s17.86-4.39,21.15-13Z"/><path d="M560.01,33.49V117.15h-18.64v-10.65c-6.27,7.68-16.14,11.75-26.95,11.75-21.46,0-36.03-11.75-36.03-36.97V33.49h19.58v45.12c0,15.2,7.21,22.4,19.58,22.4,13.63,0,22.87-8.46,22.87-25.22V33.49h19.58Z"/><path d="M667.66,.9V117.15h-18.8v-10.81c-6.58,7.99-16.3,11.91-27.73,11.91-24.28,0-42.3-16.92-42.3-42.93s18.02-42.77,42.3-42.77c10.81,0,20.37,3.6,26.95,11.28V.9h19.58Zm-19.27,74.42c0-15.98-10.81-26.16-24.91-26.16s-24.91,10.18-24.91,26.16,10.81,26.16,24.91,26.16,24.91-10.18,24.91-26.16Z"/><path d="M320.27,41.31v9.35c-6.06-7.07-14.85-10.38-24.8-10.38-22.35,0-38.93,15.43-38.93,39.36s16.58,39.51,38.93,39.51c10.13,0,18.76-3.38,24.8-10.18v9.06h21.25V41.31h-21.25Zm0,42.35c-1.65,12.37-10.89,20.06-22.64,20.06-12.98,0-22.93-9.37-22.93-24.08s9.95-24.08,22.93-24.08c11.75,0,20.99,7.7,22.64,20.06v8.03Z"/><rect class="f" x="320.27" y="20.82" width="21.25" height="13.58"/><path d="M419.57,40.28c-9.95,0-18.75,3.32-24.8,10.38v-9.35h-21.25V118.04h21.25v-9.06c6.04,6.81,14.67,10.18,24.8,10.18,22.35,0,38.93-15.57,38.93-39.51s-16.58-39.36-38.93-39.36Zm-2.16,63.45c-11.75,0-20.99-7.7-22.64-20.06v-8.03c1.65-12.37,10.89-20.06,22.64-20.06,12.98,0,22.93,9.37,22.93,24.08s-9.95,24.08-22.93,24.08Z"/><rect class="f" x="320.27" width="21.25" height="13.58"/><rect class="f" x="373.52" y="20.82" width="21.25" height="13.58"/><rect class="f" x="373.52" width="21.25" height="13.58"/></g><g id="e"/></svg>